<?xml version="1.0" standalone="no"?>
<!DOCTYPE svg PUBLIC "-//W3C//DTD SVG 20010904//EN"
 "http://www.w3.org/TR/2001/REC-SVG-20010904/DTD/svg10.dtd">
<svg version="1.0" xmlns="http://www.w3.org/2000/svg"
 width="1200.000000pt" height="1200.000000pt" viewBox="0 0 1200.000000 1200.000000"
 preserveAspectRatio="xMidYMid meet">

<g transform="translate(0.000000,1200.000000) scale(0.100000,-0.100000)"
fill="#000000" stroke="none">
<path d="M5955 10170 c-48 -32 -4179 -4043 -4192 -4071 -7 -14 -10 -34 -7 -46
3 -11 597 -594 1320 -1294 l1314 -1274 -1260 -3 -1260 -2 0 -835 0 -835 4130
0 4130 0 0 835 0 835 -1256 0 c-737 0 -1254 4 -1252 9 2 5 453 444 1003 977
1620 1567 1625 1572 1625 1603 0 35 124 -87 -2288 2251 -1047 1015 -1916 1850
-1930 1857 -37 16 -42 16 -77 -7z m2078 -2120 c1117 -1084 2032 -1975 2032
-1980 0 -5 -479 -474 -1065 -1041 -586 -568 -1185 -1148 -1332 -1290 l-266
-259 -62 0 c-34 0 -60 3 -58 8 2 4 282 277 622 607 1662 1610 2011 1952 2014
1970 3 20 -160 179 -2857 2793 -825 800 -1049 1012 -1067 1010 -13 -2 -456
-425 -1145 -1093 -618 -600 -1494 -1448 -1946 -1885 -559 -541 -821 -802 -822
-816 -1 -16 327 -340 1245 -1230 686 -665 1283 -1244 1328 -1286 l81 -77 -68
-1 -69 0 -261 254 c-144 139 -743 720 -1332 1290 -588 570 -1070 1040 -1070
1046 0 7 4051 3946 4063 3949 1 1 917 -886 2035 -1969z m-115 -119 c1052
-1020 1911 -1859 1909 -1864 -2 -6 -601 -590 -1333 -1298 l-1329 -1289 -1165
0 -1165 0 -1330 1289 c-731 709 -1330 1294 -1330 1301 0 13 3816 3720 3826
3717 3 -1 866 -836 1917 -1856z m-5328 -5136 c6 -299 9 -316 73 -355 70 -43
153 -13 190 68 20 44 22 65 25 305 l4 258 116 -3 117 -3 3 -210 c3 -249 -8
-356 -47 -441 -36 -78 -88 -129 -170 -168 -61 -29 -74 -31 -171 -31 -97 0
-110 2 -170 31 -71 34 -132 89 -160 144 -45 89 -52 136 -57 397 -3 139 -3 259
1 268 5 13 23 15 123 13 l118 -3 5 -270z m1362 68 l163 -207 5 205 5 204 118
3 117 3 0 -426 0 -425 -95 0 -94 0 -163 202 -163 202 -3 -202 -2 -202 -120 0
-120 0 0 418 c0 230 3 422 7 425 3 4 46 7 94 7 l88 0 163 -207z m1156 -220 l2
-423 -120 0 -120 0 0 425 0 426 118 -3 117 -3 3 -422z m1170 320 l3 -103 -121
0 -120 0 0 -320 0 -320 -125 0 -125 0 0 320 0 320 -120 0 -120 0 0 98 c0 54 3
102 7 105 4 4 167 6 362 5 l356 -3 3 -102z m1040 0 l3 -103 -181 0 -180 0 0
-55 0 -54 153 -3 152 -3 0 -95 0 -95 -152 -3 -153 -3 0 -64 0 -65 185 0 185 0
0 -100 0 -100 -305 0 -305 0 0 425 0 425 298 -2 297 -3 3 -102z m712 -168 c6
-299 9 -316 73 -355 70 -43 153 -13 190 68 20 44 22 65 25 305 l4 258 116 -3
117 -3 3 -210 c3 -249 -8 -356 -47 -441 -36 -78 -88 -129 -170 -168 -61 -29
-74 -31 -171 -31 -97 0 -110 2 -170 31 -71 34 -132 89 -160 144 -45 89 -52
136 -57 397 -3 139 -3 259 1 268 5 13 23 15 123 13 l118 -3 5 -270z m1497 247
c184 -97 230 -320 98 -470 -61 -69 -119 -92 -237 -92 l-98 0 0 -130 0 -130
-120 0 -120 0 0 426 0 426 218 -4 c202 -3 220 -5 259 -26z"/>
<path d="M4667 7513 c-10 -10 -8 -1453 3 -1638 24 -428 148 -745 384 -980 188
-188 409 -299 675 -340 112 -18 414 -20 510 -4 306 50 520 155 712 348 209
211 320 463 371 846 10 76 13 298 13 935 l0 835 -405 0 -405 0 -6 -855 c-4
-559 -10 -872 -17 -905 -60 -275 -195 -441 -393 -485 -82 -18 -232 -9 -292 18
-159 71 -267 229 -319 467 -8 33 -13 338 -17 905 l-6 855 -401 3 c-220 1 -403
-1 -407 -5z"/>
<path d="M9290 2770 l0 -90 64 0 c58 0 67 3 85 26 28 36 29 106 1 134 -16 16
-33 20 -85 20 l-65 0 0 -90z"/>
</g>
</svg>
